<mxfile host="65bd71144e" modified="2020-12-18T18:47:48.231Z" agent="5.0 (X11; Linux x86_64) AppleWebKit/537.36 (KHTML, like Gecko) Code/1.52.0 Chrome/83.0.4103.122 Electron/9.3.5 Safari/537.36" etag="aNP_SjAN-G97vqNF_DEM" version="13.10.0" type="embed">
    <diagram id="KxM7w4psHqKOjU6CR3UP" name="Page-1">
        <mxGraphModel dx="1118" dy="798" grid="1" gridSize="10" guides="1" tooltips="1" connect="1" arrows="1" fold="1" page="1" pageScale="1" pageWidth="850" pageHeight="1100" math="0" shadow="0">
            <root>
                <mxCell id="0"/>
                <mxCell id="1" parent="0"/>
                <mxCell id="2" value="" style="rounded=0;whiteSpace=wrap;html=1;" parent="1" vertex="1">
                    <mxGeometry x="30" y="110" width="770" height="480" as="geometry"/>
                </mxCell>
                <mxCell id="3" value="some sorta title-ish thing" style="rounded=0;whiteSpace=wrap;html=1;" vertex="1" parent="1">
                    <mxGeometry x="40" y="120" width="750" height="60" as="geometry"/>
                </mxCell>
                <mxCell id="4" value="selected recipe view: scrollable&lt;br&gt;&lt;br&gt;&lt;br&gt;&lt;br&gt;&lt;br&gt;&lt;br&gt;&lt;br&gt;&lt;br&gt;&lt;br&gt;&lt;br&gt;&lt;br&gt;&lt;br&gt;&lt;br&gt;&lt;br&gt;&lt;br&gt;&lt;br&gt;&lt;br&gt;&lt;br&gt;&lt;br&gt;&lt;br&gt;&lt;br&gt;&lt;br&gt;&lt;br&gt;&lt;br&gt;&lt;br&gt;&lt;br&gt;&lt;br&gt;&lt;br&gt;" style="rounded=0;whiteSpace=wrap;html=1;" vertex="1" parent="1">
                    <mxGeometry x="420" y="180" width="370" height="400" as="geometry"/>
                </mxCell>
                <mxCell id="5" value="New Recipe Button" style="rounded=0;whiteSpace=wrap;html=1;" vertex="1" parent="1">
                    <mxGeometry x="40" y="540" width="380" height="40" as="geometry"/>
                </mxCell>
                <mxCell id="6" value="search filters&lt;br&gt;&lt;br&gt;&lt;br&gt;&lt;br&gt;" style="rounded=0;whiteSpace=wrap;html=1;" vertex="1" parent="1">
                    <mxGeometry x="40" y="180" width="380" height="70" as="geometry"/>
                </mxCell>
                <mxCell id="12" value="Search results: scrollable&lt;br&gt;&lt;br&gt;&lt;br&gt;&lt;br&gt;&lt;br&gt;&lt;br&gt;&lt;br&gt;&lt;br&gt;&lt;br&gt;&lt;br&gt;&lt;br&gt;&lt;br&gt;&lt;br&gt;&lt;br&gt;&lt;br&gt;&lt;br&gt;&lt;br&gt;&lt;br&gt;" style="rounded=0;whiteSpace=wrap;html=1;" vertex="1" parent="1">
                    <mxGeometry x="40" y="250" width="380" height="290" as="geometry"/>
                </mxCell>
                <mxCell id="14" value="recipe name and contributor" style="rounded=0;whiteSpace=wrap;html=1;" vertex="1" parent="1">
                    <mxGeometry x="430" y="200" width="350" height="30" as="geometry"/>
                </mxCell>
                <mxCell id="15" value="recipe description" style="rounded=0;whiteSpace=wrap;html=1;" vertex="1" parent="1">
                    <mxGeometry x="430" y="230" width="350" height="70" as="geometry"/>
                </mxCell>
                <mxCell id="16" value="ingredients: multi-colum" style="rounded=0;whiteSpace=wrap;html=1;" vertex="1" parent="1">
                    <mxGeometry x="430" y="300" width="350" height="110" as="geometry"/>
                </mxCell>
                <mxCell id="17" value="directions" style="rounded=0;whiteSpace=wrap;html=1;" vertex="1" parent="1">
                    <mxGeometry x="430" y="410" width="350" height="150" as="geometry"/>
                </mxCell>
                <mxCell id="18" value="name" style="rounded=0;whiteSpace=wrap;html=1;" vertex="1" parent="1">
                    <mxGeometry x="50" y="210" width="100" height="35" as="geometry"/>
                </mxCell>
                <mxCell id="19" value="tags: multiselect" style="rounded=0;whiteSpace=wrap;html=1;" vertex="1" parent="1">
                    <mxGeometry x="150" y="210" width="260" height="35" as="geometry"/>
                </mxCell>
                <mxCell id="20" value="search result item summary: clickable&lt;br&gt;&lt;br&gt;&lt;br&gt;" style="rounded=0;whiteSpace=wrap;html=1;" vertex="1" parent="1">
                    <mxGeometry x="50" y="280" width="360" height="70" as="geometry"/>
                </mxCell>
                <mxCell id="21" value="name" style="rounded=0;whiteSpace=wrap;html=1;" vertex="1" parent="1">
                    <mxGeometry x="60" y="310" width="110" height="30" as="geometry"/>
                </mxCell>
                <mxCell id="22" value="tags" style="rounded=0;whiteSpace=wrap;html=1;" vertex="1" parent="1">
                    <mxGeometry x="170" y="310" width="230" height="30" as="geometry"/>
                </mxCell>
                <mxCell id="24" value="search result item summary: clickable&lt;br&gt;&lt;br&gt;&lt;br&gt;" style="rounded=0;whiteSpace=wrap;html=1;" vertex="1" parent="1">
                    <mxGeometry x="50" y="350" width="360" height="70" as="geometry"/>
                </mxCell>
                <mxCell id="25" value="name" style="rounded=0;whiteSpace=wrap;html=1;" vertex="1" parent="1">
                    <mxGeometry x="60" y="380" width="110" height="30" as="geometry"/>
                </mxCell>
                <mxCell id="26" value="tags" style="rounded=0;whiteSpace=wrap;html=1;" vertex="1" parent="1">
                    <mxGeometry x="170" y="380" width="230" height="30" as="geometry"/>
                </mxCell>
                <mxCell id="27" value="search result item summary: clickable&lt;br&gt;&lt;br&gt;&lt;br&gt;" style="rounded=0;whiteSpace=wrap;html=1;" vertex="1" parent="1">
                    <mxGeometry x="50" y="420" width="360" height="70" as="geometry"/>
                </mxCell>
                <mxCell id="28" value="name" style="rounded=0;whiteSpace=wrap;html=1;" vertex="1" parent="1">
                    <mxGeometry x="60" y="450" width="110" height="30" as="geometry"/>
                </mxCell>
                <mxCell id="29" value="tags" style="rounded=0;whiteSpace=wrap;html=1;" vertex="1" parent="1">
                    <mxGeometry x="170" y="450" width="230" height="30" as="geometry"/>
                </mxCell>
            </root>
        </mxGraphModel>
    </diagram>
</mxfile>